<svg width="150" height="36" viewBox="0 0 150 36" fill="none" xmlns="http://www.w3.org/2000/svg">
<path d="M9.41227 30.6125C7.68041 30.6125 6.09915 30.1669 4.66848 29.2759C3.25037 28.3849 2.11462 27.1864 1.26124 25.6804C0.420415 24.1745 0 22.5116 0 20.6919C0 19.324 0.244719 18.0439 0.734157 16.8517C1.22359 15.647 1.895 14.5928 2.74838 13.6892C3.61431 12.7731 4.61829 12.0577 5.76031 11.5432C6.90233 11.0287 8.11965 10.7714 9.41227 10.7714C10.8806 10.7714 12.2234 11.0851 13.4407 11.7126C14.6706 12.3276 15.7122 13.1747 16.5656 14.2539C17.419 15.3332 18.0402 16.5631 18.4292 17.9436C18.8183 19.324 18.9061 20.7672 18.6928 22.2732H4.93203C5.10772 22.976 5.39637 23.6097 5.79796 24.1745C6.19955 24.7267 6.70781 25.1722 7.32274 25.511C7.93768 25.8373 8.63419 26.0067 9.41227 26.0193C10.2154 26.0318 10.9433 25.8436 11.5959 25.4545C12.261 25.0529 12.8132 24.5133 13.2525 23.8356L17.9398 24.9275C17.1742 26.5966 16.0322 27.9645 14.5137 29.0312C12.9952 30.0854 11.2947 30.6125 9.41227 30.6125ZM4.78143 18.8283H14.0431C13.9051 18.0753 13.6101 17.3976 13.1583 16.7953C12.7191 16.1803 12.1732 15.6909 11.5206 15.3269C10.868 14.963 10.1652 14.781 9.41227 14.781C8.65928 14.781 7.96278 14.963 7.32274 15.3269C6.68271 15.6783 6.1368 16.1615 5.68501 16.7764C5.24577 17.3788 4.94458 18.0628 4.78143 18.8283Z" fill="#7943EA"/>
<path d="M32.5256 30.123H26.5958L19.7437 11.2797H24.6381L29.5701 24.8333L34.4833 11.2797H39.3777L32.5256 30.123Z" fill="#7943EA"/>
<path d="M49.7085 30.6125C47.9767 30.6125 46.3954 30.1669 44.9647 29.2759C43.5466 28.3849 42.4109 27.1864 41.5575 25.6804C40.7167 24.1745 40.2963 22.5116 40.2963 20.6919C40.2963 19.324 40.541 18.0439 41.0304 16.8517C41.5199 15.647 42.1913 14.5928 43.0446 13.6892C43.9106 12.7731 44.9145 12.0577 46.0566 11.5432C47.1986 11.0287 48.4159 10.7714 49.7085 10.7714C51.1768 10.7714 52.5197 11.0851 53.737 11.7126C54.9668 12.3276 56.0085 13.1747 56.8619 14.2539C57.7152 15.3332 58.3364 16.5631 58.7255 17.9436C59.1145 19.324 59.2024 20.7672 58.989 22.2732H45.2283C45.404 22.976 45.6926 23.6097 46.0942 24.1745C46.4958 24.7267 47.0041 25.1722 47.619 25.511C48.2339 25.8373 48.9304 26.0067 49.7085 26.0193C50.5117 26.0318 51.2396 25.8436 51.8922 25.4545C52.5573 25.0529 53.1095 24.5133 53.5487 23.8356L58.236 24.9275C57.4705 26.5966 56.3285 27.9645 54.81 29.0312C53.2915 30.0854 51.591 30.6125 49.7085 30.6125ZM45.0777 18.8283H54.3394C54.2013 18.0753 53.9064 17.3976 53.4546 16.7953C53.0154 16.1803 52.4695 15.6909 51.8169 15.3269C51.1643 14.963 50.4615 14.781 49.7085 14.781C48.9555 14.781 48.259 14.963 47.619 15.3269C46.979 15.6783 46.4331 16.1615 45.9813 16.7764C45.542 17.3788 45.2408 18.0628 45.0777 18.8283Z" fill="#7943EA"/>
<path d="M79.2951 18.2259V30.123H74.7019V19.4307C74.7019 18.6903 74.52 18.0189 74.156 17.4165C73.7921 16.8015 73.3026 16.3184 72.6877 15.967C72.0853 15.603 71.4139 15.4211 70.6735 15.4211C69.933 15.4211 69.2554 15.603 68.6404 15.967C68.038 16.3184 67.5549 16.8015 67.1909 17.4165C66.8395 18.0189 66.6638 18.6903 66.6638 19.4307V30.123H62.0707L62.0518 11.2985H66.645L66.6638 12.9739C67.3039 12.2962 68.0694 11.7628 68.9604 11.3738C69.8515 10.9722 70.8115 10.7714 71.8406 10.7714C73.2085 10.7714 74.4572 11.1102 75.5867 11.7879C76.7161 12.4531 77.6134 13.3504 78.2786 14.4798C78.9563 15.5968 79.2951 16.8455 79.2951 18.2259Z" fill="#7943EA"/>
<path d="M93.1355 15.8917H89.4836V30.123H84.8904V15.8917H82.1044V11.2985H84.8904V5.38759H89.4836V11.2985H93.1355V15.8917Z" fill="#7943EA"/>
<path d="M101.798 30.4619C100.819 30.3991 99.8717 30.2046 98.9556 29.8783C98.052 29.5395 97.2488 29.0814 96.546 28.5041C95.8432 27.9268 95.3036 27.2366 94.9271 26.4334L98.805 24.7769C98.9556 25.0278 99.2003 25.2977 99.5391 25.5863C99.878 25.8624 100.28 26.0946 100.744 26.2828C101.221 26.4711 101.742 26.5652 102.306 26.5652C102.783 26.5652 103.235 26.5024 103.662 26.3769C104.101 26.2389 104.452 26.0318 104.716 25.7557C104.992 25.4796 105.13 25.122 105.13 24.6827C105.13 24.2184 104.967 23.8607 104.641 23.6097C104.327 23.3462 103.925 23.1517 103.436 23.0262C102.959 22.8881 102.495 22.7626 102.043 22.6497C100.851 22.4112 99.7399 22.041 98.7108 21.539C97.6943 21.0371 96.8723 20.3907 96.2448 19.6001C95.6299 18.7969 95.3224 17.8306 95.3224 16.7011C95.3224 15.4587 95.6487 14.3857 96.3013 13.4821C96.9664 12.5786 97.8261 11.8821 98.8803 11.3926C99.947 10.9032 101.095 10.6585 102.325 10.6585C103.819 10.6585 105.186 10.9722 106.429 11.5997C107.684 12.2146 108.675 13.0868 109.403 14.2163L105.77 16.3623C105.594 16.0611 105.35 15.785 105.036 15.534C104.722 15.2705 104.364 15.0571 103.963 14.894C103.561 14.7183 103.141 14.6179 102.702 14.5928C102.137 14.5677 101.622 14.6179 101.158 14.7434C100.694 14.8689 100.317 15.0822 100.029 15.3834C99.7525 15.6846 99.6144 16.0862 99.6144 16.5882C99.6144 17.0651 99.8027 17.4227 100.179 17.6612C100.556 17.8871 101.007 18.0628 101.535 18.1883C102.074 18.3138 102.589 18.4518 103.078 18.6024C104.182 18.9664 105.218 19.4119 106.184 19.939C107.163 20.466 107.947 21.1123 108.537 21.8779C109.127 22.6434 109.409 23.5595 109.384 24.6263C109.384 25.8436 109.02 26.9103 108.293 27.8264C107.565 28.73 106.623 29.4202 105.469 29.8971C104.327 30.374 103.103 30.5623 101.798 30.4619Z" fill="#7943EA"/>
<path d="M149.403 9.8182H146.13V6.54547H148.843C149.216 7.5963 149.405 8.70328 149.403 9.8182Z" fill="#7943EA"/>
<path d="M146.13 9.8182H149.403C149.405 10.9331 149.216 12.0401 148.843 13.0909H146.13V9.8182Z" fill="#7943EA"/>
<path d="M148.843 6.54547H146.13V3.27274H146.898C147.757 4.22365 148.418 5.3362 148.843 6.54547Z" fill="#7943EA"/>
<path d="M146.13 13.0909H148.843C148.418 14.3002 147.757 15.4128 146.898 16.3637H146.13V13.0909Z" fill="#7943EA"/>
<path d="M146.898 3.27274H146.13V2.50547C146.402 2.7446 146.659 3.00088 146.898 3.27274Z" fill="#7943EA"/>
<path d="M146.13 16.3637H146.898C146.659 16.6355 146.402 16.8918 146.13 17.1309V16.3637Z" fill="#7943EA"/>
<path d="M146.13 16.3637V17.1309C145.18 17.9903 144.067 18.6516 142.858 19.0764V16.3637H146.13Z" fill="#7943EA"/>
<path d="M146.13 13.0909V16.3637H142.858V15.4836C143.852 14.911 144.678 14.0855 145.25 13.0909L146.13 13.0909Z" fill="#7943EA"/>
<path d="M146.13 9.8182V13.0909L145.25 13.0909C145.829 12.0973 146.132 10.9678 146.13 9.8182Z" fill="#7943EA"/>
<path d="M146.13 6.54547V9.8182C146.132 8.66859 145.829 7.53914 145.25 6.54547H146.13Z" fill="#7943EA"/>
<path d="M146.13 3.27274V6.54547H145.25C144.678 5.5509 143.852 4.72543 142.858 4.15274V3.27274H146.13Z" fill="#7943EA"/>
<path d="M146.13 2.50547V3.27274H142.858V0.560014C144.067 0.984748 145.18 1.6461 146.13 2.50547Z" fill="#7943EA"/>
<path d="M142.858 16.3637V19.0764C141.807 19.4489 140.7 19.6384 139.585 19.6364V16.3637H142.858Z" fill="#7943EA"/>
<path d="M142.858 15.4836V16.3637H139.585C140.735 16.3655 141.864 16.0618 142.858 15.4836Z" fill="#7943EA"/>
<path d="M142.858 3.27274V4.15274C141.864 3.57461 140.735 3.27092 139.585 3.27275L142.858 3.27274Z" fill="#7943EA"/>
<path d="M142.858 0.560014V3.27274L139.585 3.27275V1.54404e-05C140.7 -0.00196953 141.807 0.187446 142.858 0.560014Z" fill="#7943EA"/>
<path d="M142.858 9.8182H139.585V6.54547C140.453 6.54547 141.285 6.89027 141.899 7.50403C142.513 8.11778 142.858 8.95022 142.858 9.8182Z" fill="#7943EA"/>
<path d="M139.585 9.8182H142.858C142.858 10.6862 142.513 11.5186 141.899 12.1324C141.285 12.7461 140.453 13.0909 139.585 13.0909V9.8182Z" fill="#7943EA"/>
<path d="M139.585 16.3637V19.6364C138.47 19.6384 137.363 19.4489 136.312 19.0764V16.3637H139.585Z" fill="#7943EA"/>
<path d="M139.585 9.8182V13.0909C138.717 13.0909 137.885 12.7461 137.271 12.1324C136.657 11.5186 136.312 10.6862 136.312 9.8182H139.585Z" fill="#7943EA"/>
<path d="M139.585 6.54547V9.8182H136.312C136.312 8.95022 136.657 8.11778 137.271 7.50403C137.885 6.89027 138.717 6.54547 139.585 6.54547Z" fill="#7943EA"/>
<path d="M139.585 1.54404e-05V3.27275L136.312 3.27274V0.560013C137.363 0.187445 138.47 -0.00196953 139.585 1.54404e-05Z" fill="#7943EA"/>
<path d="M136.312 1.54404e-05H139.585C138.47 -0.00196953 137.363 0.187445 136.312 0.560013V1.54404e-05Z" fill="#7943EA"/>
<path d="M136.312 6.54547H139.585C138.717 6.54547 137.885 6.89027 137.271 7.50403C136.657 8.11778 136.312 8.95022 136.312 9.8182V6.54547Z" fill="#7943EA"/>
<path d="M139.585 13.0909H136.312V9.8182C136.312 10.6862 136.657 11.5186 137.271 12.1324C137.885 12.7461 138.717 13.0909 139.585 13.0909Z" fill="#7943EA"/>
<path d="M139.585 19.6364L136.312 19.6364V19.0764C137.363 19.4489 138.47 19.6384 139.585 19.6364Z" fill="#7943EA"/>
<path d="M136.312 19.0764V19.6364L133.04 19.6364V17.1309C133.99 17.9903 135.103 18.6516 136.312 19.0764Z" fill="#7943EA"/>
<path d="M136.312 16.3637V19.0764C135.103 18.6516 133.99 17.9903 133.04 17.1309V16.3637H136.312Z" fill="#7943EA"/>
<path d="M136.312 9.8182V13.0909H133.92C133.341 12.0973 133.038 10.9678 133.04 9.8182H136.312Z" fill="#7943EA"/>
<path d="M136.312 6.54547V9.8182H133.04C133.038 8.66859 133.341 7.53914 133.92 6.54547H136.312Z" fill="#7943EA"/>
<path d="M136.312 0.560013V3.27274L133.04 3.27274V2.50547C133.99 1.6461 135.103 0.984747 136.312 0.560013Z" fill="#7943EA"/>
<path d="M136.312 1.54404e-05V0.560013C135.103 0.984747 133.99 1.6461 133.04 2.50547V1.6646e-05L136.312 1.54404e-05Z" fill="#7943EA"/>
<path d="M133.04 6.54547H133.92C133.341 7.53914 133.038 8.66859 133.04 9.8182V6.54547Z" fill="#7943EA"/>
<path d="M133.92 13.0909H133.04V9.8182C133.038 10.9678 133.341 12.0973 133.92 13.0909Z" fill="#7943EA"/>
<path d="M133.04 22.9091V26.1818C133.042 25.0669 132.852 23.9599 132.48 22.9091H133.04Z" fill="#7943EA"/>
<path d="M133.04 19.6364V22.9091H132.48C132.055 21.6998 131.393 20.5873 130.534 19.6364L133.04 19.6364Z" fill="#7943EA"/>
<path d="M133.04 17.1309V19.6364L130.534 19.6364C130.295 19.3645 130.039 19.1082 129.767 18.8691V17.1309C130.039 16.8918 130.295 16.6355 130.534 16.3637H132.272C132.511 16.6355 132.768 16.8918 133.04 17.1309Z" fill="#7943EA"/>
<path d="M133.04 16.3637V17.1309C132.768 16.8918 132.511 16.6355 132.272 16.3637H133.04Z" fill="#7943EA"/>
<path d="M133.04 13.0909V16.3637H132.272C131.955 16.013 131.664 15.6385 131.403 15.2437C131.856 14.5752 132.223 13.8518 132.494 13.0909L133.04 13.0909Z" fill="#7943EA"/>
<path d="M133.04 9.8182V13.0909H132.48C132.852 12.0401 133.042 10.9331 133.04 9.8182Z" fill="#7943EA"/>
<path d="M133.04 6.54547V9.8182C133.042 8.70328 132.852 7.5963 132.48 6.54547H133.04Z" fill="#7943EA"/>
<path d="M133.04 2.50547V3.27274H132.272C132.511 3.00088 132.768 2.7446 133.04 2.50547Z" fill="#7943EA"/>
<path d="M133.04 1.6646e-05V2.50547C132.768 2.7446 132.511 3.00088 132.272 3.27274H130.534C130.295 3.00088 130.039 2.7446 129.767 2.50547V1.6646e-05H133.04Z" fill="#7943EA"/>
<path d="M133.04 9.8182H129.767C129.765 8.70328 129.954 7.5963 130.327 6.54547H132.48C132.852 7.5963 133.042 8.70328 133.04 9.8182Z" fill="#7943EA"/>
<path d="M129.767 9.8182H133.04C133.042 10.9331 132.852 12.0401 132.48 13.0909H130.327C129.954 12.0401 129.765 10.9331 129.767 9.8182Z" fill="#7943EA"/>
<path d="M133.04 26.1818H129.767V22.9091H132.48C132.852 23.9599 133.042 25.0669 133.04 26.1818Z" fill="#7943EA"/>
<path d="M129.767 26.1818H133.04C133.042 27.2967 132.852 28.4037 132.48 29.4546H129.767V26.1818Z" fill="#7943EA"/>
<path d="M130.327 13.0909H132.48C132.209 13.8518 131.842 14.5752 131.389 15.2437C130.945 14.5737 130.589 13.8504 130.327 13.0909Z" fill="#7943EA"/>
<path d="M132.48 22.9091H129.767V19.6364H130.534C131.393 20.5873 132.055 21.6998 132.48 22.9091Z" fill="#7943EA"/>
<path d="M129.767 29.4546H132.48C132.055 30.6638 131.393 31.7764 130.534 32.7273H129.767V29.4546Z" fill="#7943EA"/>
<path d="M132.272 16.3637H130.534C130.852 16.013 131.142 15.6385 131.403 15.2437C131.664 15.6385 131.955 16.013 132.272 16.3637Z" fill="#7943EA"/>
<path d="M131.403 15.2437C131.142 15.6385 130.852 16.013 130.534 16.3637H129.767V13.0909L130.327 13.0909C130.593 13.8511 130.955 14.5744 131.403 15.2437Z" fill="#7943EA"/>
<path d="M130.534 3.27274H129.767V2.50547C130.039 2.7446 130.295 3.00088 130.534 3.27274Z" fill="#7943EA"/>
<path d="M129.767 16.3637H130.534C130.295 16.6355 130.039 16.8918 129.767 17.1309V16.3637Z" fill="#7943EA"/>
<path d="M130.534 19.6364H129.767V18.8691C130.039 19.1082 130.295 19.3645 130.534 19.6364Z" fill="#7943EA"/>
<path d="M129.767 32.7273H130.534C130.295 32.9992 130.039 33.2554 129.767 33.4946V32.7273Z" fill="#7943EA"/>
<path d="M129.767 6.54547H130.327C129.954 7.5963 129.765 8.70328 129.767 9.8182V6.54547Z" fill="#7943EA"/>
<path d="M130.327 13.0909L129.767 13.0909V9.8182C129.765 10.9331 129.954 12.0401 130.327 13.0909Z" fill="#7943EA"/>
<path d="M129.767 32.7273V33.4946C128.816 34.3539 127.703 35.0153 126.494 35.44V32.7273L129.767 32.7273Z" fill="#7943EA"/>
<path d="M129.767 29.4546V32.7273L126.494 32.7273V31.8473C127.489 31.2746 128.314 30.4491 128.887 29.4546L129.767 29.4546Z" fill="#7943EA"/>
<path d="M129.767 26.1818V29.4546L128.887 29.4546C129.465 28.4609 129.769 27.3314 129.767 26.1818Z" fill="#7943EA"/>
<path d="M129.767 9.8182V13.0909L128.887 13.0909C129.465 12.0973 129.769 10.9678 129.767 9.8182Z" fill="#7943EA"/>
<path d="M129.767 6.54547V9.8182C129.769 8.66859 129.465 7.53914 128.887 6.54547H129.767Z" fill="#7943EA"/>
<path d="M129.767 2.50547V3.27274H126.494V0.560014C127.703 0.984748 128.816 1.6461 129.767 2.50547Z" fill="#7943EA"/>
<path d="M129.767 1.6646e-05V2.50547C128.816 1.6461 127.703 0.984748 126.494 0.560014V1.6646e-05H129.767Z" fill="#7943EA"/>
<path d="M129.767 9.8182H126.494V6.54547H128.887C129.465 7.53914 129.769 8.66859 129.767 9.8182Z" fill="#7943EA"/>
<path d="M126.494 9.8182H129.767C129.769 10.9678 129.465 12.0973 128.887 13.0909H126.494V9.8182Z" fill="#7943EA"/>
<path d="M126.494 32.7273V35.44C125.443 35.8126 124.336 36.002 123.221 36V32.7273H126.494Z" fill="#7943EA"/>
<path d="M126.494 31.8473V32.7273H123.221C124.371 32.7291 125.5 32.4254 126.494 31.8473Z" fill="#7943EA"/>
<path d="M126.494 22.9091V26.1818C126.494 25.3139 126.149 24.4814 125.536 23.8677C124.922 23.2539 124.089 22.9091 123.221 22.9091H126.494Z" fill="#7943EA"/>
<path d="M126.494 20.5164V22.9091H123.221V19.6364C124.371 19.6345 125.5 19.9382 126.494 20.5164Z" fill="#7943EA"/>
<path d="M126.494 19.6364V20.5164C125.5 19.9382 124.371 19.6345 123.221 19.6364H126.494Z" fill="#7943EA"/>
<path d="M126.494 19.0764V19.6364H123.221C124.336 19.6384 125.443 19.4489 126.494 19.0764Z" fill="#7943EA"/>
<path d="M126.494 16.9237V19.0764C125.443 19.4489 124.336 19.6384 123.221 19.6364V16.3637C124.336 16.3617 125.443 16.5511 126.494 16.9237Z" fill="#7943EA"/>
<path d="M126.494 16.3637V16.9237C125.443 16.5511 124.336 16.3617 123.221 16.3637H126.494Z" fill="#7943EA"/>
<path d="M126.494 15.4836V16.3637H123.221C124.371 16.3655 125.5 16.0618 126.494 15.4836Z" fill="#7943EA"/>
<path d="M126.494 13.0909V15.4836C125.5 16.0618 124.371 16.3655 123.221 16.3637V13.0909L126.494 13.0909Z" fill="#7943EA"/>
<path d="M126.494 9.8182V13.0909L123.221 13.0909C124.089 13.0909 124.922 12.7461 125.536 12.1324C126.149 11.5186 126.494 10.6862 126.494 9.8182Z" fill="#7943EA"/>
<path d="M126.494 6.54547V9.8182C126.494 8.95022 126.149 8.11778 125.536 7.50403C124.922 6.89027 124.089 6.54547 123.221 6.54547H126.494Z" fill="#7943EA"/>
<path d="M126.494 0.560014V3.27274L123.221 3.27274V1.54404e-05C124.336 -0.00196953 125.443 0.187446 126.494 0.560014Z" fill="#7943EA"/>
<path d="M126.494 1.6646e-05V0.560014C125.443 0.187446 124.336 -0.00196953 123.221 1.54404e-05L126.494 1.6646e-05Z" fill="#7943EA"/>
<path d="M126.494 9.8182H123.221V6.54547C124.089 6.54547 124.922 6.89027 125.536 7.50403C126.149 8.11778 126.494 8.95022 126.494 9.8182Z" fill="#7943EA"/>
<path d="M123.221 9.8182H126.494C126.494 10.6862 126.149 11.5186 125.536 12.1324C124.922 12.7461 124.089 13.0909 123.221 13.0909V9.8182Z" fill="#7943EA"/>
<path d="M126.494 26.1818H123.221V22.9091C124.089 22.9091 124.922 23.2539 125.536 23.8677C126.149 24.4814 126.494 25.3139 126.494 26.1818Z" fill="#7943EA"/>
<path d="M123.221 26.1818H126.494C126.494 27.0498 126.149 27.8822 125.536 28.496C124.922 29.1098 124.089 29.4546 123.221 29.4546V26.1818Z" fill="#7943EA"/>
<path d="M123.221 32.7273V36C122.106 36.002 120.999 35.8126 119.949 35.44V32.7273H123.221Z" fill="#7943EA"/>
<path d="M123.221 26.1818V29.4546C122.353 29.4546 121.521 29.1098 120.907 28.496C120.293 27.8822 119.949 27.0498 119.949 26.1818L123.221 26.1818Z" fill="#7943EA"/>
<path d="M123.221 22.9091V26.1818L119.949 26.1818C119.949 25.3139 120.293 24.4814 120.907 23.8677C121.521 23.2539 122.353 22.9091 123.221 22.9091Z" fill="#7943EA"/>
<path d="M123.221 19.6364V22.9091L119.949 22.9091V20.5164C120.942 19.9382 122.072 19.6345 123.221 19.6364Z" fill="#7943EA"/>
<path d="M123.221 16.3637V19.6364C122.106 19.6384 120.999 19.4489 119.949 19.0764V16.9237C120.999 16.5511 122.106 16.3617 123.221 16.3637Z" fill="#7943EA"/>
<path d="M123.221 13.0909V16.3637C122.072 16.3655 120.942 16.0618 119.949 15.4836V13.0909H123.221Z" fill="#7943EA"/>
<path d="M123.221 9.8182V13.0909C122.353 13.0909 121.521 12.7461 120.907 12.1324C120.293 11.5186 119.949 10.6862 119.949 9.8182H123.221Z" fill="#7943EA"/>
<path d="M123.221 6.54547V9.8182H119.949C119.949 8.95022 120.293 8.11778 120.907 7.50403C121.521 6.89027 122.353 6.54547 123.221 6.54547Z" fill="#7943EA"/>
<path d="M123.221 1.54404e-05V3.27274H119.949V0.560013C120.999 0.187445 122.106 -0.00196953 123.221 1.54404e-05Z" fill="#7943EA"/>
<path d="M119.949 3.27274H123.221C122.072 3.27091 120.942 3.57461 119.949 4.15275V3.27274Z" fill="#7943EA"/>
<path d="M123.221 13.0909H119.949V9.8182C119.949 10.6862 120.293 11.5186 120.907 12.1324C121.521 12.7461 122.353 13.0909 123.221 13.0909Z" fill="#7943EA"/>
<path d="M123.221 16.3637L119.949 16.3637V15.4836C120.942 16.0618 122.072 16.3655 123.221 16.3637Z" fill="#7943EA"/>
<path d="M119.949 16.3637L123.221 16.3637C122.106 16.3617 120.999 16.5511 119.949 16.9237V16.3637Z" fill="#7943EA"/>
<path d="M123.221 19.6364L119.949 19.6364V19.0764C120.999 19.4489 122.106 19.6384 123.221 19.6364Z" fill="#7943EA"/>
<path d="M119.949 19.6364L123.221 19.6364C122.072 19.6345 120.942 19.9382 119.949 20.5164V19.6364Z" fill="#7943EA"/>
<path d="M119.949 22.9091L123.221 22.9091C122.353 22.9091 121.521 23.2539 120.907 23.8677C120.293 24.4814 119.949 25.3139 119.949 26.1818V22.9091Z" fill="#7943EA"/>
<path d="M123.221 32.7273H119.949V31.8473C120.942 32.4254 122.072 32.7291 123.221 32.7273Z" fill="#7943EA"/>
<path d="M119.949 32.7273V35.44C118.739 35.0153 117.627 34.3539 116.676 33.4946V32.7273H119.949Z" fill="#7943EA"/>
<path d="M119.949 31.8473V32.7273H116.676V29.4546H117.556C118.129 30.4491 118.954 31.2746 119.949 31.8473Z" fill="#7943EA"/>
<path d="M119.949 3.27274V4.15275C118.954 4.72543 118.129 5.5509 117.556 6.54547H116.676V3.27274L119.949 3.27274Z" fill="#7943EA"/>
<path d="M119.949 0.560013V3.27274L116.676 3.27274V2.50547C117.627 1.6461 118.739 0.984747 119.949 0.560013Z" fill="#7943EA"/>
<path d="M116.676 6.54547H117.556C116.978 7.53914 116.674 8.66859 116.676 9.8182V6.54547Z" fill="#7943EA"/>
<path d="M117.556 29.4546H116.676V26.1818C116.674 27.3314 116.978 28.4609 117.556 29.4546Z" fill="#7943EA"/>
<path d="M116.676 32.7273V33.4946C116.404 33.2554 116.148 32.9991 115.909 32.7273H116.676Z" fill="#7943EA"/>
<path d="M116.676 29.4546V32.7273H115.909C115.049 31.7764 114.388 30.6638 113.963 29.4546H116.676Z" fill="#7943EA"/>
<path d="M116.676 26.1818V29.4546H113.963C113.591 28.4037 113.401 27.2968 113.403 26.1818H116.676Z" fill="#7943EA"/>
<path d="M116.676 22.9091L116.676 26.1818H113.403C113.401 25.0669 113.591 23.9599 113.963 22.9091H116.676Z" fill="#7943EA"/>
<path d="M116.676 19.6364L116.676 22.9091H113.963C114.388 21.6998 115.049 20.5873 115.909 19.6364H116.676Z" fill="#7943EA"/>
<path d="M116.676 18.8691V19.6364H115.909C116.148 19.3645 116.404 19.1082 116.676 18.8691Z" fill="#7943EA"/>
<path d="M116.676 17.1309V18.8691C116.404 19.1082 116.148 19.3645 115.909 19.6364L113.403 19.6364V16.3637H115.909C116.148 16.6355 116.404 16.8918 116.676 17.1309Z" fill="#7943EA"/>
<path d="M116.676 16.3637V17.1309C116.404 16.8918 116.148 16.6355 115.909 16.3637H116.676Z" fill="#7943EA"/>
<path d="M116.676 13.0909V16.3637H115.909C115.049 15.4128 114.388 14.3002 113.963 13.0909H116.676Z" fill="#7943EA"/>
<path d="M116.676 9.8182V13.0909H113.963C113.591 12.0401 113.401 10.9331 113.403 9.8182H116.676Z" fill="#7943EA"/>
<path d="M116.676 6.54547V9.8182H113.403C113.401 8.70328 113.591 7.5963 113.963 6.54547H116.676Z" fill="#7943EA"/>
<path d="M116.676 3.27274V6.54547H113.963C114.388 5.3362 115.049 4.22365 115.909 3.27274H116.676Z" fill="#7943EA"/>
<path d="M116.676 2.50547V3.27274H115.909C116.148 3.00088 116.404 2.7446 116.676 2.50547Z" fill="#7943EA"/>
<path d="M115.909 16.3637H113.403V13.0909H113.963C114.388 14.3002 115.049 15.4128 115.909 16.3637Z" fill="#7943EA"/>
<path d="M113.403 19.6364L115.909 19.6364C115.049 20.5873 114.388 21.6998 113.963 22.9091H113.403V19.6364Z" fill="#7943EA"/>
<path d="M113.963 13.0909H113.403L113.403 9.8182C113.401 10.9331 113.591 12.0401 113.963 13.0909Z" fill="#7943EA"/>
<path d="M113.403 22.9091H113.963C113.591 23.9599 113.401 25.0669 113.403 26.1818L113.403 22.9091Z" fill="#7943EA"/>
</svg>
